<?xml version="1.0" standalone="no"?>
<!DOCTYPE svg PUBLIC "-//W3C//DTD SVG 20010904//EN"
 "http://www.w3.org/TR/2001/REC-SVG-20010904/DTD/svg10.dtd">
<svg version="1.0" xmlns="http://www.w3.org/2000/svg"
 width="1080.000000pt" height="1080.000000pt" viewBox="0 0 1080.000000 1080.000000"
 preserveAspectRatio="xMidYMid meet">
<metadata>
Created by potrace 1.14, written by Peter Selinger 2001-2017
</metadata>
<g transform="translate(0.000000,1080.000000) scale(0.100000,-0.100000)"
fill="#000000" stroke="none">
<path d="M10385 10183 c-390 -10 -1576 -44 -1704 -49 l-154 -7 6 -201 c3 -110
36 -1308 73 -2661 37 -1353 70 -2463 73 -2466 9 -9 1969 45 1978 55 3 3 -17
758 -21 763 0 0 -206 -4 -456 -11 -250 -7 -457 -11 -459 -10 -3 3 -13 359 -47
1562 l-6 252 79 0 c117 0 797 21 801 25 4 3 -19 759 -23 763 -1 2 -197 -2
-434 -9 -238 -6 -435 -8 -439 -4 -6 5 -43 1195 -37 1203 1 1 179 7 396 12 217
6 423 13 458 16 l64 6 -7 286 c-7 322 -16 483 -25 480 -3 -1 -55 -3 -116 -5z"/>
<path d="M8255 10123 c-38 -1 -247 -7 -464 -13 -217 -5 -395 -11 -397 -13 -5
-4 -27 -361 -169 -2656 -58 -938 -108 -1707 -110 -1710 -3 -2 -5 4 -5 15 0 36
-411 4328 -414 4332 -5 4 -1088 -27 -1093 -32 -2 -1 98 -695 221 -1542 124
-846 297 -2036 386 -2644 88 -608 163 -1111 166 -1119 3 -11 45 -12 237 -7
877 26 1160 36 1165 41 3 3 18 123 33 268 94 889 529 5018 531 5046 3 39 6 38
-87 34z"/>
<path d="M1240 10029 c-496 -50 -858 -275 -985 -613 -52 -138 -59 -192 -57
-444 4 -362 19 -719 36 -812 59 -329 215 -546 651 -906 212 -176 389 -345 477
-455 243 -308 368 -676 385 -1130 5 -151 4 -172 -16 -237 -23 -77 -56 -114
-116 -131 -109 -30 -193 56 -215 219 -5 41 -17 322 -25 624 -8 302 -16 550
-18 551 -4 4 -1052 -27 -1056 -31 -2 -2 2 -221 8 -486 22 -869 27 -932 91
-1095 108 -281 370 -475 747 -554 126 -26 359 -42 493 -34 665 38 1069 305
1164 767 28 135 16 763 -20 1043 -39 308 -128 578 -256 779 -132 209 -263 343
-572 590 -326 261 -448 396 -552 611 -85 174 -126 345 -140 585 -16 262 61
394 213 365 48 -9 96 -59 117 -122 26 -79 34 -188 46 -643 7 -239 13 -436 14
-437 6 -6 1052 29 1057 35 6 7 -13 798 -25 1033 -6 123 -23 219 -54 309 -142
407 -555 633 -1152 628 -85 0 -193 -5 -240 -9z"/>
<path d="M4135 10012 c-302 -8 -551 -16 -553 -17 -5 -4 27 260 -542 -4454 -60
-498 -108 -906 -107 -906 4 -4 942 27 946 30 1 2 31 328 65 724 34 396 64 722
66 724 3 3 114 8 246 12 l241 7 7 -44 c3 -23 40 -349 82 -723 41 -374 77 -681
78 -682 1 -2 139 1 307 7 167 5 416 12 552 16 l248 6 -5 27 c-3 14 -58 382
-121 816 -64 435 -231 1566 -371 2515 -140 949 -262 1778 -271 1843 l-17 117
-151 -2 c-82 0 -397 -8 -700 -16z m75 -937 c0 -3 45 -492 100 -1087 55 -595
99 -1082 98 -1083 -2 -1 -76 -5 -165 -8 l-163 -6 0 37 c-1 60 100 2063 106
2110 3 23 9 42 15 42 5 0 9 -2 9 -5z"/>
<path d="M1969 3901 c-253 -36 -426 -173 -468 -369 -8 -37 -11 -343 -11 -1025
0 -842 2 -981 15 -1032 44 -169 169 -281 375 -338 114 -31 374 -30 483 1 209
60 326 169 372 347 13 51 15 189 15 1016 0 594 -4 977 -10 1010 -15 84 -73
191 -129 241 -112 101 -247 147 -451 153 -74 2 -160 0 -191 -4z m201 -421 c11
-11 23 -32 27 -47 5 -16 8 -435 8 -933 0 -847 -1 -907 -18 -937 -29 -53 -95
-58 -131 -10 -21 28 -21 32 -24 930 -1 496 0 916 3 933 3 18 15 44 26 58 26
33 79 36 109 6z"/>
<path d="M7415 3901 c-250 -42 -392 -141 -457 -322 l-23 -64 0 -1010 0 -1010
23 -64 c72 -199 218 -299 462 -317 184 -14 368 70 449 205 14 24 22 30 25 20
5 -13 36 -167 36 -175 0 -2 59 -4 130 -4 l130 0 0 690 0 690 -335 0 -335 0 0
-195 0 -195 65 0 66 0 -3 -284 c-3 -271 -4 -286 -24 -313 -15 -20 -31 -29 -57
-31 -46 -4 -72 24 -86 90 -15 69 -15 1743 0 1803 15 61 42 87 86 83 26 -2 42
-11 57 -31 20 -27 21 -44 26 -295 l5 -267 268 -3 267 -2 0 289 c0 174 -4 311
-11 343 -35 168 -174 296 -378 349 -85 23 -302 33 -386 20z"/>
<path d="M95 3849 c-3 -8 -4 -615 -3 -1349 l3 -1335 268 -3 267 -2 0 523 0
524 118 6 c64 4 148 14 187 22 213 46 362 188 404 383 17 82 15 749 -3 834
-43 199 -186 334 -406 383 -104 23 -827 35 -835 14z m667 -400 c44 -24 48 -58
48 -414 0 -419 1 -417 -124 -431 l-56 -7 0 438 0 438 56 -7 c31 -3 65 -11 76
-17z"/>
<path d="M2888 3714 c-2 -82 -4 -689 -4 -1349 l1 -1200 268 -3 267 -2 0 631 0
631 43 -7 c56 -9 88 -32 114 -86 21 -43 22 -57 26 -499 5 -418 7 -461 25 -532
12 -42 28 -91 37 -107 l16 -31 269 0 c149 0 270 2 270 4 0 3 -14 58 -31 123
l-32 118 -8 441 c-4 252 -12 468 -19 504 -28 155 -109 234 -272 265 -38 7 -71
15 -74 18 -3 2 14 7 38 11 114 17 225 103 277 214 24 54 33 92 42 178 13 128
5 341 -16 432 -44 189 -189 320 -405 367 -59 13 -154 18 -452 22 l-377 5 -3
-148z m663 -265 c45 -24 49 -51 49 -349 0 -234 -3 -286 -15 -311 -19 -36 -50
-49 -116 -49 l-49 0 0 366 0 367 56 -7 c31 -3 65 -11 75 -17z"/>
<path d="M4217 3853 c-4 -3 -7 -91 -7 -195 l0 -188 180 0 180 0 2 -1152 3
-1153 268 -3 267 -2 0 1155 0 1155 180 0 180 0 -2 193 -3 192 -621 3 c-341 1
-624 -1 -627 -5z"/>
<path d="M5540 2701 c0 -821 3 -1175 11 -1213 27 -124 125 -246 242 -302 238
-112 611 -95 807 36 105 70 172 175 191 300 6 38 8 509 7 1198 l-3 1135 -267
3 -268 2 0 -1099 c0 -734 -4 -1116 -11 -1149 -14 -66 -40 -94 -86 -90 -26 2
-42 11 -57 31 -21 28 -21 30 -26 1165 l-5 1137 -267 3 -268 2 0 -1159z"/>
<path d="M8645 3848 c-4 -11 -126 -822 -369 -2456 -24 -159 -30 -225 -22 -228
6 -2 115 -3 241 -2 l230 3 42 360 c23 198 42 363 42 368 1 6 239 11 242 5 1
-2 15 -167 32 -368 l32 -365 280 0 280 0 -2 25 c-8 83 -315 2647 -318 2658 -3
9 -83 12 -355 12 -271 0 -352 -3 -355 -12z m334 -958 c17 -261 33 -503 37
-537 l6 -63 -81 0 -81 0 0 38 c0 20 18 260 40 532 22 272 40 502 41 510 3 51
12 -58 38 -480z"/>
<path d="M9730 2510 l0 -1350 503 2 502 3 0 195 0 195 -237 3 -238 2 0 1150 0
1150 -265 0 -265 0 0 -1350z"/>
</g>
</svg>
